<mxfile host="app.diagrams.net" modified="2023-03-03T02:51:51.336Z" agent="5.0 (Macintosh; Intel Mac OS X 10_15_7) AppleWebKit/537.36 (KHTML, like Gecko) Chrome/110.0.0.0 Safari/537.36" etag="cednNP65g6-AhvzbfsLX" version="21.0.1" type="github">
  <diagram name="Page-1" id="WXFtNZqbaa3MfH2G_0FY">
    <mxGraphModel dx="2074" dy="1156" grid="1" gridSize="10" guides="1" tooltips="1" connect="1" arrows="1" fold="1" page="1" pageScale="1" pageWidth="850" pageHeight="1100" math="0" shadow="0">
      <root>
        <mxCell id="0" />
        <mxCell id="1" parent="0" />
        <mxCell id="LkrY-ZjblnmWio8mkm5j-88" value="" style="rounded=0;whiteSpace=wrap;html=1;fillColor=#dae8fc;strokeColor=#6c8ebf;" parent="1" vertex="1">
          <mxGeometry x="100" y="640" width="280" height="720" as="geometry" />
        </mxCell>
        <mxCell id="LkrY-ZjblnmWio8mkm5j-8" value="" style="edgeStyle=orthogonalEdgeStyle;rounded=0;orthogonalLoop=1;jettySize=auto;html=1;fillColor=#dae8fc;strokeColor=#6c8ebf;" parent="1" source="LkrY-ZjblnmWio8mkm5j-1" target="LkrY-ZjblnmWio8mkm5j-2" edge="1">
          <mxGeometry relative="1" as="geometry">
            <Array as="points">
              <mxPoint x="190" y="60" />
              <mxPoint x="190" y="60" />
            </Array>
          </mxGeometry>
        </mxCell>
        <mxCell id="LkrY-ZjblnmWio8mkm5j-1" value="SUPER COMPUTE NODE 0" style="rounded=0;whiteSpace=wrap;html=1;fillColor=#dae8fc;strokeColor=#6c8ebf;" parent="1" vertex="1">
          <mxGeometry x="240" y="40" width="400" height="40" as="geometry" />
        </mxCell>
        <mxCell id="LkrY-ZjblnmWio8mkm5j-2" value="SW&lt;br&gt;SWITCH" style="rounded=0;whiteSpace=wrap;html=1;fillColor=#e1d5e7;strokeColor=#9673a6;" parent="1" vertex="1">
          <mxGeometry x="100" y="40" width="60" height="480" as="geometry" />
        </mxCell>
        <mxCell id="LkrY-ZjblnmWio8mkm5j-9" value="" style="edgeStyle=orthogonalEdgeStyle;rounded=0;orthogonalLoop=1;jettySize=auto;html=1;fillColor=#dae8fc;strokeColor=#6c8ebf;" parent="1" source="LkrY-ZjblnmWio8mkm5j-3" target="LkrY-ZjblnmWio8mkm5j-2" edge="1">
          <mxGeometry relative="1" as="geometry">
            <Array as="points">
              <mxPoint x="190" y="140" />
              <mxPoint x="190" y="140" />
            </Array>
          </mxGeometry>
        </mxCell>
        <mxCell id="LkrY-ZjblnmWio8mkm5j-3" value="SUPER COMPUTE NODE 1" style="rounded=0;whiteSpace=wrap;html=1;fillColor=#dae8fc;strokeColor=#6c8ebf;" parent="1" vertex="1">
          <mxGeometry x="240" y="120" width="400" height="40" as="geometry" />
        </mxCell>
        <mxCell id="LkrY-ZjblnmWio8mkm5j-10" value="" style="edgeStyle=orthogonalEdgeStyle;rounded=0;orthogonalLoop=1;jettySize=auto;html=1;fillColor=#dae8fc;strokeColor=#6c8ebf;" parent="1" source="LkrY-ZjblnmWio8mkm5j-4" target="LkrY-ZjblnmWio8mkm5j-2" edge="1">
          <mxGeometry relative="1" as="geometry">
            <Array as="points">
              <mxPoint x="180" y="220" />
              <mxPoint x="180" y="220" />
            </Array>
          </mxGeometry>
        </mxCell>
        <mxCell id="LkrY-ZjblnmWio8mkm5j-4" value="SUPER COMPUTE NODE 2" style="rounded=0;whiteSpace=wrap;html=1;fillColor=#dae8fc;strokeColor=#6c8ebf;" parent="1" vertex="1">
          <mxGeometry x="240" y="200" width="400" height="40" as="geometry" />
        </mxCell>
        <mxCell id="LkrY-ZjblnmWio8mkm5j-12" value="" style="edgeStyle=orthogonalEdgeStyle;rounded=0;orthogonalLoop=1;jettySize=auto;html=1;fillColor=#dae8fc;strokeColor=#6c8ebf;" parent="1" source="LkrY-ZjblnmWio8mkm5j-6" target="LkrY-ZjblnmWio8mkm5j-2" edge="1">
          <mxGeometry relative="1" as="geometry">
            <Array as="points">
              <mxPoint x="170" y="500" />
              <mxPoint x="170" y="500" />
            </Array>
          </mxGeometry>
        </mxCell>
        <mxCell id="LkrY-ZjblnmWio8mkm5j-6" value="SUPER COMPUTE NODE 9" style="rounded=0;whiteSpace=wrap;html=1;fillColor=#dae8fc;strokeColor=#6c8ebf;" parent="1" vertex="1">
          <mxGeometry x="240" y="480" width="400" height="40" as="geometry" />
        </mxCell>
        <mxCell id="LkrY-ZjblnmWio8mkm5j-11" value="" style="edgeStyle=orthogonalEdgeStyle;rounded=0;orthogonalLoop=1;jettySize=auto;html=1;fillColor=#dae8fc;strokeColor=#6c8ebf;" parent="1" source="LkrY-ZjblnmWio8mkm5j-7" target="LkrY-ZjblnmWio8mkm5j-2" edge="1">
          <mxGeometry relative="1" as="geometry">
            <Array as="points">
              <mxPoint x="170" y="420" />
              <mxPoint x="170" y="420" />
            </Array>
          </mxGeometry>
        </mxCell>
        <mxCell id="LkrY-ZjblnmWio8mkm5j-7" value="SUPER COMPUTE NODE 8" style="rounded=0;whiteSpace=wrap;html=1;fillColor=#dae8fc;strokeColor=#6c8ebf;" parent="1" vertex="1">
          <mxGeometry x="240" y="400" width="400" height="40" as="geometry" />
        </mxCell>
        <mxCell id="LkrY-ZjblnmWio8mkm5j-14" value="" style="endArrow=none;dashed=1;html=1;dashPattern=1 2;strokeWidth=3;rounded=0;" parent="1" edge="1">
          <mxGeometry width="50" height="50" relative="1" as="geometry">
            <mxPoint x="440" y="390" as="sourcePoint" />
            <mxPoint x="440" y="260" as="targetPoint" />
          </mxGeometry>
        </mxCell>
        <mxCell id="LkrY-ZjblnmWio8mkm5j-85" value="" style="edgeStyle=orthogonalEdgeStyle;rounded=0;orthogonalLoop=1;jettySize=auto;html=1;entryX=0;entryY=0.5;entryDx=0;entryDy=0;" parent="1" source="LkrY-ZjblnmWio8mkm5j-16" target="LkrY-ZjblnmWio8mkm5j-45" edge="1">
          <mxGeometry relative="1" as="geometry">
            <Array as="points">
              <mxPoint x="120" y="820" />
              <mxPoint x="120" y="1000" />
            </Array>
          </mxGeometry>
        </mxCell>
        <mxCell id="LkrY-ZjblnmWio8mkm5j-16" value="6B" style="rounded=0;whiteSpace=wrap;html=1;fillColor=#ffe6cc;strokeColor=#d79b00;" parent="1" vertex="1">
          <mxGeometry x="140" y="800" width="40" height="40" as="geometry" />
        </mxCell>
        <mxCell id="LkrY-ZjblnmWio8mkm5j-31" value="" style="edgeStyle=orthogonalEdgeStyle;rounded=0;orthogonalLoop=1;jettySize=auto;html=1;" parent="1" source="LkrY-ZjblnmWio8mkm5j-17" target="LkrY-ZjblnmWio8mkm5j-27" edge="1">
          <mxGeometry relative="1" as="geometry" />
        </mxCell>
        <mxCell id="LkrY-ZjblnmWio8mkm5j-17" value="AI" style="rounded=0;whiteSpace=wrap;html=1;fillColor=#ffe6cc;strokeColor=#d79b00;" parent="1" vertex="1">
          <mxGeometry x="300" y="680" width="40" height="20" as="geometry" />
        </mxCell>
        <mxCell id="LkrY-ZjblnmWio8mkm5j-32" value="" style="edgeStyle=orthogonalEdgeStyle;rounded=0;orthogonalLoop=1;jettySize=auto;html=1;" parent="1" source="LkrY-ZjblnmWio8mkm5j-18" target="LkrY-ZjblnmWio8mkm5j-27" edge="1">
          <mxGeometry relative="1" as="geometry" />
        </mxCell>
        <mxCell id="LkrY-ZjblnmWio8mkm5j-80" value="" style="edgeStyle=orthogonalEdgeStyle;rounded=0;orthogonalLoop=1;jettySize=auto;html=1;" parent="1" source="LkrY-ZjblnmWio8mkm5j-18" target="LkrY-ZjblnmWio8mkm5j-45" edge="1">
          <mxGeometry relative="1" as="geometry" />
        </mxCell>
        <mxCell id="LkrY-ZjblnmWio8mkm5j-90" value="" style="edgeStyle=orthogonalEdgeStyle;rounded=0;orthogonalLoop=1;jettySize=auto;html=1;entryX=0.5;entryY=1;entryDx=0;entryDy=0;" parent="1" source="LkrY-ZjblnmWio8mkm5j-18" target="LkrY-ZjblnmWio8mkm5j-20" edge="1">
          <mxGeometry relative="1" as="geometry">
            <Array as="points">
              <mxPoint x="320" y="750" />
              <mxPoint x="360" y="750" />
              <mxPoint x="360" y="820" />
              <mxPoint x="320" y="820" />
            </Array>
          </mxGeometry>
        </mxCell>
        <mxCell id="LkrY-ZjblnmWio8mkm5j-18" value="NI" style="rounded=0;whiteSpace=wrap;html=1;fillColor=#ffe6cc;strokeColor=#d79b00;" parent="1" vertex="1">
          <mxGeometry x="300" y="700" width="40" height="20" as="geometry" />
        </mxCell>
        <mxCell id="LkrY-ZjblnmWio8mkm5j-30" value="" style="edgeStyle=orthogonalEdgeStyle;rounded=0;orthogonalLoop=1;jettySize=auto;html=1;" parent="1" source="LkrY-ZjblnmWio8mkm5j-19" target="LkrY-ZjblnmWio8mkm5j-28" edge="1">
          <mxGeometry relative="1" as="geometry" />
        </mxCell>
        <mxCell id="LkrY-ZjblnmWio8mkm5j-19" value="AI" style="rounded=0;whiteSpace=wrap;html=1;fillColor=#ffe6cc;strokeColor=#d79b00;" parent="1" vertex="1">
          <mxGeometry x="300" y="760" width="40" height="20" as="geometry" />
        </mxCell>
        <mxCell id="LkrY-ZjblnmWio8mkm5j-29" value="" style="edgeStyle=orthogonalEdgeStyle;rounded=0;orthogonalLoop=1;jettySize=auto;html=1;" parent="1" source="LkrY-ZjblnmWio8mkm5j-20" target="LkrY-ZjblnmWio8mkm5j-28" edge="1">
          <mxGeometry relative="1" as="geometry" />
        </mxCell>
        <mxCell id="LkrY-ZjblnmWio8mkm5j-79" value="" style="edgeStyle=orthogonalEdgeStyle;rounded=0;orthogonalLoop=1;jettySize=auto;html=1;" parent="1" source="LkrY-ZjblnmWio8mkm5j-20" target="LkrY-ZjblnmWio8mkm5j-45" edge="1">
          <mxGeometry relative="1" as="geometry" />
        </mxCell>
        <mxCell id="LkrY-ZjblnmWio8mkm5j-20" value="NI" style="rounded=0;whiteSpace=wrap;html=1;fillColor=#ffe6cc;strokeColor=#d79b00;" parent="1" vertex="1">
          <mxGeometry x="300" y="780" width="40" height="20" as="geometry" />
        </mxCell>
        <mxCell id="LkrY-ZjblnmWio8mkm5j-34" value="" style="edgeStyle=orthogonalEdgeStyle;rounded=0;orthogonalLoop=1;jettySize=auto;html=1;" parent="1" source="LkrY-ZjblnmWio8mkm5j-21" target="LkrY-ZjblnmWio8mkm5j-33" edge="1">
          <mxGeometry relative="1" as="geometry" />
        </mxCell>
        <mxCell id="LkrY-ZjblnmWio8mkm5j-21" value="AI" style="rounded=0;whiteSpace=wrap;html=1;fillColor=#ffe6cc;strokeColor=#d79b00;" parent="1" vertex="1">
          <mxGeometry x="300" y="840" width="40" height="20" as="geometry" />
        </mxCell>
        <mxCell id="LkrY-ZjblnmWio8mkm5j-35" value="" style="edgeStyle=orthogonalEdgeStyle;rounded=0;orthogonalLoop=1;jettySize=auto;html=1;" parent="1" source="LkrY-ZjblnmWio8mkm5j-22" target="LkrY-ZjblnmWio8mkm5j-33" edge="1">
          <mxGeometry relative="1" as="geometry" />
        </mxCell>
        <mxCell id="LkrY-ZjblnmWio8mkm5j-77" value="" style="edgeStyle=orthogonalEdgeStyle;rounded=0;orthogonalLoop=1;jettySize=auto;html=1;" parent="1" source="LkrY-ZjblnmWio8mkm5j-22" target="LkrY-ZjblnmWio8mkm5j-45" edge="1">
          <mxGeometry relative="1" as="geometry" />
        </mxCell>
        <mxCell id="LkrY-ZjblnmWio8mkm5j-91" value="" style="edgeStyle=orthogonalEdgeStyle;rounded=0;orthogonalLoop=1;jettySize=auto;html=1;entryX=0.5;entryY=1;entryDx=0;entryDy=0;exitX=0.5;exitY=1;exitDx=0;exitDy=0;" parent="1" source="LkrY-ZjblnmWio8mkm5j-22" target="LkrY-ZjblnmWio8mkm5j-24" edge="1">
          <mxGeometry relative="1" as="geometry">
            <Array as="points">
              <mxPoint x="320" y="890" />
              <mxPoint x="360" y="890" />
              <mxPoint x="360" y="980" />
              <mxPoint x="320" y="980" />
            </Array>
          </mxGeometry>
        </mxCell>
        <mxCell id="LkrY-ZjblnmWio8mkm5j-22" value="NI" style="rounded=0;whiteSpace=wrap;html=1;fillColor=#ffe6cc;strokeColor=#d79b00;" parent="1" vertex="1">
          <mxGeometry x="300" y="860" width="40" height="20" as="geometry" />
        </mxCell>
        <mxCell id="LkrY-ZjblnmWio8mkm5j-37" value="" style="edgeStyle=orthogonalEdgeStyle;rounded=0;orthogonalLoop=1;jettySize=auto;html=1;" parent="1" source="LkrY-ZjblnmWio8mkm5j-23" target="LkrY-ZjblnmWio8mkm5j-36" edge="1">
          <mxGeometry relative="1" as="geometry" />
        </mxCell>
        <mxCell id="LkrY-ZjblnmWio8mkm5j-23" value="AI" style="rounded=0;whiteSpace=wrap;html=1;fillColor=#ffe6cc;strokeColor=#d79b00;" parent="1" vertex="1">
          <mxGeometry x="300" y="920" width="40" height="20" as="geometry" />
        </mxCell>
        <mxCell id="LkrY-ZjblnmWio8mkm5j-38" value="" style="edgeStyle=orthogonalEdgeStyle;rounded=0;orthogonalLoop=1;jettySize=auto;html=1;" parent="1" source="LkrY-ZjblnmWio8mkm5j-24" target="LkrY-ZjblnmWio8mkm5j-36" edge="1">
          <mxGeometry relative="1" as="geometry" />
        </mxCell>
        <mxCell id="LkrY-ZjblnmWio8mkm5j-76" value="" style="edgeStyle=orthogonalEdgeStyle;rounded=0;orthogonalLoop=1;jettySize=auto;html=1;" parent="1" source="LkrY-ZjblnmWio8mkm5j-24" target="LkrY-ZjblnmWio8mkm5j-45" edge="1">
          <mxGeometry relative="1" as="geometry" />
        </mxCell>
        <mxCell id="LkrY-ZjblnmWio8mkm5j-24" value="NI" style="rounded=0;whiteSpace=wrap;html=1;fillColor=#ffe6cc;strokeColor=#d79b00;" parent="1" vertex="1">
          <mxGeometry x="300" y="940" width="40" height="20" as="geometry" />
        </mxCell>
        <mxCell id="LkrY-ZjblnmWio8mkm5j-27" value="switch" style="rounded=0;whiteSpace=wrap;html=1;fillColor=#ffe6cc;strokeColor=#d79b00;" parent="1" vertex="1">
          <mxGeometry x="220" y="700" width="40" height="20" as="geometry" />
        </mxCell>
        <mxCell id="LkrY-ZjblnmWio8mkm5j-39" value="" style="edgeStyle=orthogonalEdgeStyle;rounded=0;orthogonalLoop=1;jettySize=auto;html=1;" parent="1" source="LkrY-ZjblnmWio8mkm5j-28" target="LkrY-ZjblnmWio8mkm5j-16" edge="1">
          <mxGeometry relative="1" as="geometry" />
        </mxCell>
        <mxCell id="LkrY-ZjblnmWio8mkm5j-28" value="switch" style="rounded=0;whiteSpace=wrap;html=1;fillColor=#ffe6cc;strokeColor=#d79b00;" parent="1" vertex="1">
          <mxGeometry x="220" y="780" width="40" height="20" as="geometry" />
        </mxCell>
        <mxCell id="LkrY-ZjblnmWio8mkm5j-40" value="" style="edgeStyle=orthogonalEdgeStyle;rounded=0;orthogonalLoop=1;jettySize=auto;html=1;entryX=1;entryY=0.5;entryDx=0;entryDy=0;" parent="1" source="LkrY-ZjblnmWio8mkm5j-33" target="LkrY-ZjblnmWio8mkm5j-16" edge="1">
          <mxGeometry relative="1" as="geometry" />
        </mxCell>
        <mxCell id="LkrY-ZjblnmWio8mkm5j-33" value="switch" style="rounded=0;whiteSpace=wrap;html=1;fillColor=#ffe6cc;strokeColor=#d79b00;" parent="1" vertex="1">
          <mxGeometry x="220" y="860" width="40" height="20" as="geometry" />
        </mxCell>
        <mxCell id="LkrY-ZjblnmWio8mkm5j-36" value="switch" style="rounded=0;whiteSpace=wrap;html=1;fillColor=#ffe6cc;strokeColor=#d79b00;" parent="1" vertex="1">
          <mxGeometry x="220" y="940" width="40" height="20" as="geometry" />
        </mxCell>
        <mxCell id="LkrY-ZjblnmWio8mkm5j-41" value="" style="edgeStyle=orthogonalEdgeStyle;rounded=0;orthogonalLoop=1;jettySize=auto;html=1;entryX=1;entryY=0.5;entryDx=0;entryDy=0;exitX=0;exitY=0.5;exitDx=0;exitDy=0;" parent="1" source="LkrY-ZjblnmWio8mkm5j-36" target="LkrY-ZjblnmWio8mkm5j-16" edge="1">
          <mxGeometry relative="1" as="geometry">
            <mxPoint x="230" y="880" as="sourcePoint" />
            <mxPoint x="190" y="830" as="targetPoint" />
            <Array as="points">
              <mxPoint x="200" y="950" />
              <mxPoint x="200" y="820" />
            </Array>
          </mxGeometry>
        </mxCell>
        <mxCell id="LkrY-ZjblnmWio8mkm5j-43" value="" style="edgeStyle=orthogonalEdgeStyle;rounded=0;orthogonalLoop=1;jettySize=auto;html=1;exitX=0;exitY=0.5;exitDx=0;exitDy=0;entryX=1;entryY=0.5;entryDx=0;entryDy=0;" parent="1" source="LkrY-ZjblnmWio8mkm5j-27" target="LkrY-ZjblnmWio8mkm5j-16" edge="1">
          <mxGeometry relative="1" as="geometry">
            <mxPoint x="230" y="740" as="sourcePoint" />
            <mxPoint x="190" y="770" as="targetPoint" />
          </mxGeometry>
        </mxCell>
        <mxCell id="LkrY-ZjblnmWio8mkm5j-45" value="SW&lt;br&gt;SWITCH" style="rounded=0;whiteSpace=wrap;html=1;fillColor=#e1d5e7;strokeColor=#9673a6;" parent="1" vertex="1">
          <mxGeometry x="580" y="680" width="60" height="640" as="geometry" />
        </mxCell>
        <mxCell id="LkrY-ZjblnmWio8mkm5j-86" value="" style="edgeStyle=orthogonalEdgeStyle;rounded=0;orthogonalLoop=1;jettySize=auto;html=1;entryX=0;entryY=0.5;entryDx=0;entryDy=0;" parent="1" source="LkrY-ZjblnmWio8mkm5j-47" target="LkrY-ZjblnmWio8mkm5j-45" edge="1">
          <mxGeometry relative="1" as="geometry">
            <Array as="points">
              <mxPoint x="120" y="1180" />
              <mxPoint x="120" y="1000" />
            </Array>
          </mxGeometry>
        </mxCell>
        <mxCell id="LkrY-ZjblnmWio8mkm5j-47" value="6B" style="rounded=0;whiteSpace=wrap;html=1;fillColor=#ffe6cc;strokeColor=#d79b00;" parent="1" vertex="1">
          <mxGeometry x="140" y="1160" width="40" height="40" as="geometry" />
        </mxCell>
        <mxCell id="LkrY-ZjblnmWio8mkm5j-48" value="" style="edgeStyle=orthogonalEdgeStyle;rounded=0;orthogonalLoop=1;jettySize=auto;html=1;" parent="1" source="LkrY-ZjblnmWio8mkm5j-49" target="LkrY-ZjblnmWio8mkm5j-64" edge="1">
          <mxGeometry relative="1" as="geometry" />
        </mxCell>
        <mxCell id="LkrY-ZjblnmWio8mkm5j-49" value="AI" style="rounded=0;whiteSpace=wrap;html=1;fillColor=#ffe6cc;strokeColor=#d79b00;" parent="1" vertex="1">
          <mxGeometry x="300" y="1040" width="40" height="20" as="geometry" />
        </mxCell>
        <mxCell id="LkrY-ZjblnmWio8mkm5j-50" value="" style="edgeStyle=orthogonalEdgeStyle;rounded=0;orthogonalLoop=1;jettySize=auto;html=1;" parent="1" source="LkrY-ZjblnmWio8mkm5j-51" target="LkrY-ZjblnmWio8mkm5j-64" edge="1">
          <mxGeometry relative="1" as="geometry" />
        </mxCell>
        <mxCell id="LkrY-ZjblnmWio8mkm5j-72" value="" style="edgeStyle=orthogonalEdgeStyle;rounded=0;orthogonalLoop=1;jettySize=auto;html=1;entryX=0;entryY=0.5;entryDx=0;entryDy=0;" parent="1" source="LkrY-ZjblnmWio8mkm5j-51" target="LkrY-ZjblnmWio8mkm5j-45" edge="1">
          <mxGeometry relative="1" as="geometry" />
        </mxCell>
        <mxCell id="LkrY-ZjblnmWio8mkm5j-92" value="" style="edgeStyle=orthogonalEdgeStyle;rounded=0;orthogonalLoop=1;jettySize=auto;html=1;entryX=0.5;entryY=1;entryDx=0;entryDy=0;" parent="1" source="LkrY-ZjblnmWio8mkm5j-51" target="LkrY-ZjblnmWio8mkm5j-55" edge="1">
          <mxGeometry relative="1" as="geometry">
            <Array as="points">
              <mxPoint x="320" y="1110" />
              <mxPoint x="360" y="1110" />
              <mxPoint x="360" y="1180" />
              <mxPoint x="320" y="1180" />
            </Array>
          </mxGeometry>
        </mxCell>
        <mxCell id="LkrY-ZjblnmWio8mkm5j-51" value="NI" style="rounded=0;whiteSpace=wrap;html=1;fillColor=#ffe6cc;strokeColor=#d79b00;" parent="1" vertex="1">
          <mxGeometry x="300" y="1060" width="40" height="20" as="geometry" />
        </mxCell>
        <mxCell id="LkrY-ZjblnmWio8mkm5j-52" value="" style="edgeStyle=orthogonalEdgeStyle;rounded=0;orthogonalLoop=1;jettySize=auto;html=1;" parent="1" source="LkrY-ZjblnmWio8mkm5j-53" target="LkrY-ZjblnmWio8mkm5j-66" edge="1">
          <mxGeometry relative="1" as="geometry" />
        </mxCell>
        <mxCell id="LkrY-ZjblnmWio8mkm5j-53" value="AI" style="rounded=0;whiteSpace=wrap;html=1;fillColor=#ffe6cc;strokeColor=#d79b00;" parent="1" vertex="1">
          <mxGeometry x="300" y="1120" width="40" height="20" as="geometry" />
        </mxCell>
        <mxCell id="LkrY-ZjblnmWio8mkm5j-54" value="" style="edgeStyle=orthogonalEdgeStyle;rounded=0;orthogonalLoop=1;jettySize=auto;html=1;" parent="1" source="LkrY-ZjblnmWio8mkm5j-55" target="LkrY-ZjblnmWio8mkm5j-66" edge="1">
          <mxGeometry relative="1" as="geometry" />
        </mxCell>
        <mxCell id="LkrY-ZjblnmWio8mkm5j-73" value="" style="edgeStyle=orthogonalEdgeStyle;rounded=0;orthogonalLoop=1;jettySize=auto;html=1;entryX=0;entryY=0.5;entryDx=0;entryDy=0;" parent="1" source="LkrY-ZjblnmWio8mkm5j-55" target="LkrY-ZjblnmWio8mkm5j-45" edge="1">
          <mxGeometry relative="1" as="geometry" />
        </mxCell>
        <mxCell id="LkrY-ZjblnmWio8mkm5j-55" value="NI" style="rounded=0;whiteSpace=wrap;html=1;fillColor=#ffe6cc;strokeColor=#d79b00;" parent="1" vertex="1">
          <mxGeometry x="300" y="1140" width="40" height="20" as="geometry" />
        </mxCell>
        <mxCell id="LkrY-ZjblnmWio8mkm5j-56" value="" style="edgeStyle=orthogonalEdgeStyle;rounded=0;orthogonalLoop=1;jettySize=auto;html=1;" parent="1" source="LkrY-ZjblnmWio8mkm5j-57" target="LkrY-ZjblnmWio8mkm5j-68" edge="1">
          <mxGeometry relative="1" as="geometry" />
        </mxCell>
        <mxCell id="LkrY-ZjblnmWio8mkm5j-57" value="AI" style="rounded=0;whiteSpace=wrap;html=1;fillColor=#ffe6cc;strokeColor=#d79b00;" parent="1" vertex="1">
          <mxGeometry x="300" y="1200" width="40" height="20" as="geometry" />
        </mxCell>
        <mxCell id="LkrY-ZjblnmWio8mkm5j-58" value="" style="edgeStyle=orthogonalEdgeStyle;rounded=0;orthogonalLoop=1;jettySize=auto;html=1;" parent="1" source="LkrY-ZjblnmWio8mkm5j-59" target="LkrY-ZjblnmWio8mkm5j-68" edge="1">
          <mxGeometry relative="1" as="geometry" />
        </mxCell>
        <mxCell id="LkrY-ZjblnmWio8mkm5j-74" value="" style="edgeStyle=orthogonalEdgeStyle;rounded=0;orthogonalLoop=1;jettySize=auto;html=1;entryX=0;entryY=0.5;entryDx=0;entryDy=0;" parent="1" source="LkrY-ZjblnmWio8mkm5j-59" target="LkrY-ZjblnmWio8mkm5j-45" edge="1">
          <mxGeometry relative="1" as="geometry" />
        </mxCell>
        <mxCell id="LkrY-ZjblnmWio8mkm5j-93" value="" style="edgeStyle=orthogonalEdgeStyle;rounded=0;orthogonalLoop=1;jettySize=auto;html=1;entryX=0.5;entryY=1;entryDx=0;entryDy=0;" parent="1" source="LkrY-ZjblnmWio8mkm5j-59" target="LkrY-ZjblnmWio8mkm5j-63" edge="1">
          <mxGeometry relative="1" as="geometry">
            <Array as="points">
              <mxPoint x="320" y="1270" />
              <mxPoint x="360" y="1270" />
              <mxPoint x="360" y="1340" />
              <mxPoint x="320" y="1340" />
            </Array>
          </mxGeometry>
        </mxCell>
        <mxCell id="LkrY-ZjblnmWio8mkm5j-59" value="NI" style="rounded=0;whiteSpace=wrap;html=1;fillColor=#ffe6cc;strokeColor=#d79b00;" parent="1" vertex="1">
          <mxGeometry x="300" y="1220" width="40" height="20" as="geometry" />
        </mxCell>
        <mxCell id="LkrY-ZjblnmWio8mkm5j-60" value="" style="edgeStyle=orthogonalEdgeStyle;rounded=0;orthogonalLoop=1;jettySize=auto;html=1;" parent="1" source="LkrY-ZjblnmWio8mkm5j-61" target="LkrY-ZjblnmWio8mkm5j-69" edge="1">
          <mxGeometry relative="1" as="geometry" />
        </mxCell>
        <mxCell id="LkrY-ZjblnmWio8mkm5j-61" value="AI" style="rounded=0;whiteSpace=wrap;html=1;fillColor=#ffe6cc;strokeColor=#d79b00;" parent="1" vertex="1">
          <mxGeometry x="300" y="1280" width="40" height="20" as="geometry" />
        </mxCell>
        <mxCell id="LkrY-ZjblnmWio8mkm5j-62" value="" style="edgeStyle=orthogonalEdgeStyle;rounded=0;orthogonalLoop=1;jettySize=auto;html=1;" parent="1" source="LkrY-ZjblnmWio8mkm5j-63" target="LkrY-ZjblnmWio8mkm5j-69" edge="1">
          <mxGeometry relative="1" as="geometry" />
        </mxCell>
        <mxCell id="LkrY-ZjblnmWio8mkm5j-75" value="" style="edgeStyle=orthogonalEdgeStyle;rounded=0;orthogonalLoop=1;jettySize=auto;html=1;entryX=0;entryY=0.5;entryDx=0;entryDy=0;" parent="1" source="LkrY-ZjblnmWio8mkm5j-63" target="LkrY-ZjblnmWio8mkm5j-45" edge="1">
          <mxGeometry relative="1" as="geometry" />
        </mxCell>
        <mxCell id="LkrY-ZjblnmWio8mkm5j-63" value="NI" style="rounded=0;whiteSpace=wrap;html=1;fillColor=#ffe6cc;strokeColor=#d79b00;" parent="1" vertex="1">
          <mxGeometry x="300" y="1300" width="40" height="20" as="geometry" />
        </mxCell>
        <mxCell id="LkrY-ZjblnmWio8mkm5j-64" value="switch" style="rounded=0;whiteSpace=wrap;html=1;fillColor=#ffe6cc;strokeColor=#d79b00;" parent="1" vertex="1">
          <mxGeometry x="220" y="1060" width="40" height="20" as="geometry" />
        </mxCell>
        <mxCell id="LkrY-ZjblnmWio8mkm5j-65" value="" style="edgeStyle=orthogonalEdgeStyle;rounded=0;orthogonalLoop=1;jettySize=auto;html=1;" parent="1" source="LkrY-ZjblnmWio8mkm5j-66" target="LkrY-ZjblnmWio8mkm5j-47" edge="1">
          <mxGeometry relative="1" as="geometry" />
        </mxCell>
        <mxCell id="LkrY-ZjblnmWio8mkm5j-66" value="switch" style="rounded=0;whiteSpace=wrap;html=1;fillColor=#ffe6cc;strokeColor=#d79b00;" parent="1" vertex="1">
          <mxGeometry x="220" y="1140" width="40" height="20" as="geometry" />
        </mxCell>
        <mxCell id="LkrY-ZjblnmWio8mkm5j-67" value="" style="edgeStyle=orthogonalEdgeStyle;rounded=0;orthogonalLoop=1;jettySize=auto;html=1;entryX=1;entryY=0.5;entryDx=0;entryDy=0;" parent="1" source="LkrY-ZjblnmWio8mkm5j-68" target="LkrY-ZjblnmWio8mkm5j-47" edge="1">
          <mxGeometry relative="1" as="geometry" />
        </mxCell>
        <mxCell id="LkrY-ZjblnmWio8mkm5j-68" value="switch" style="rounded=0;whiteSpace=wrap;html=1;fillColor=#ffe6cc;strokeColor=#d79b00;" parent="1" vertex="1">
          <mxGeometry x="220" y="1220" width="40" height="20" as="geometry" />
        </mxCell>
        <mxCell id="LkrY-ZjblnmWio8mkm5j-69" value="switch" style="rounded=0;whiteSpace=wrap;html=1;fillColor=#ffe6cc;strokeColor=#d79b00;" parent="1" vertex="1">
          <mxGeometry x="220" y="1300" width="40" height="20" as="geometry" />
        </mxCell>
        <mxCell id="LkrY-ZjblnmWio8mkm5j-70" value="" style="edgeStyle=orthogonalEdgeStyle;rounded=0;orthogonalLoop=1;jettySize=auto;html=1;entryX=1;entryY=0.5;entryDx=0;entryDy=0;exitX=0;exitY=0.5;exitDx=0;exitDy=0;" parent="1" source="LkrY-ZjblnmWio8mkm5j-69" target="LkrY-ZjblnmWio8mkm5j-47" edge="1">
          <mxGeometry relative="1" as="geometry">
            <mxPoint x="230" y="1240" as="sourcePoint" />
            <mxPoint x="190" y="1190" as="targetPoint" />
            <Array as="points">
              <mxPoint x="200" y="1310" />
              <mxPoint x="200" y="1180" />
            </Array>
          </mxGeometry>
        </mxCell>
        <mxCell id="LkrY-ZjblnmWio8mkm5j-71" value="" style="edgeStyle=orthogonalEdgeStyle;rounded=0;orthogonalLoop=1;jettySize=auto;html=1;exitX=0;exitY=0.5;exitDx=0;exitDy=0;entryX=1;entryY=0.5;entryDx=0;entryDy=0;" parent="1" source="LkrY-ZjblnmWio8mkm5j-64" target="LkrY-ZjblnmWio8mkm5j-47" edge="1">
          <mxGeometry relative="1" as="geometry">
            <mxPoint x="230" y="1100" as="sourcePoint" />
            <mxPoint x="190" y="1130" as="targetPoint" />
          </mxGeometry>
        </mxCell>
        <mxCell id="LkrY-ZjblnmWio8mkm5j-82" value="" style="endArrow=classic;startArrow=classic;html=1;rounded=0;exitX=0.5;exitY=0;exitDx=0;exitDy=0;entryX=0.5;entryY=1;entryDx=0;entryDy=0;shape=link;" parent="1" source="LkrY-ZjblnmWio8mkm5j-47" target="LkrY-ZjblnmWio8mkm5j-16" edge="1">
          <mxGeometry width="50" height="50" relative="1" as="geometry">
            <mxPoint x="360" y="990" as="sourcePoint" />
            <mxPoint x="120" y="850" as="targetPoint" />
          </mxGeometry>
        </mxCell>
        <mxCell id="LkrY-ZjblnmWio8mkm5j-83" value="Connect" style="edgeLabel;html=1;align=center;verticalAlign=middle;resizable=0;points=[];" parent="LkrY-ZjblnmWio8mkm5j-82" vertex="1" connectable="0">
          <mxGeometry x="0.175" y="2" relative="1" as="geometry">
            <mxPoint as="offset" />
          </mxGeometry>
        </mxCell>
        <mxCell id="LkrY-ZjblnmWio8mkm5j-89" value="SUPER&lt;br&gt;COMPUTER&lt;br&gt;NODE" style="text;html=1;strokeColor=none;fillColor=none;align=center;verticalAlign=middle;whiteSpace=wrap;rounded=0;" parent="1" vertex="1">
          <mxGeometry x="120" y="680" width="60" height="30" as="geometry" />
        </mxCell>
      </root>
    </mxGraphModel>
  </diagram>
</mxfile>
